HIERARCHY
ROOT Root
{
  OFFSET 0.0 0.0 0.0
  CHANNELS 6 Xposition Yposition Zposition Zrotation Yrotation Xrotation
  JOINT Hips
  {
    OFFSET 0.0 100.0 0.0
    CHANNELS 6 Xposition Yposition Zposition Zrotation Yrotation Xrotation
    JOINT Spine1
    {
      OFFSET -0.013727 5.003763 -0.053727
      CHANNELS 3 Zrotation Yrotation Xrotation
      JOINT Spine2
      {
        OFFSET -0.0 7.125301 -0.029825
        CHANNELS 3 Zrotation Yrotation Xrotation
        JOINT Chest
        {
          OFFSET -1e-06 7.550063 -0.815971
          CHANNELS 3 Zrotation Yrotation Xrotation
          JOINT Neck1
          {
            OFFSET -0.181677 26.311295 -0.553348
            CHANNELS 3 Zrotation Yrotation Xrotation
            JOINT Neck2
            {
              OFFSET -3e-06 7.709397 2.302585
              CHANNELS 3 Zrotation Yrotation Xrotation
              JOINT Head
              {
                OFFSET -5e-06 6.128916 1.953709
                CHANNELS 3 Zrotation Yrotation Xrotation
                JOINT HeadEnd
                {
                  OFFSET 0.003598 16.065403 -1.835379
                  CHANNELS 3 Zrotation Yrotation Xrotation
                }
                JOINT Jaw
                {
                  OFFSET 0.002637 0.475592 3.094941
                  CHANNELS 3 Zrotation Yrotation Xrotation
                }
                JOINT LeftEye
                {
                  OFFSET 3.206381 5.380205 7.586883
                  CHANNELS 3 Zrotation Yrotation Xrotation
                }
                JOINT RightEye
                {
                  OFFSET -3.22244 5.361869 7.558234
                  CHANNELS 3 Zrotation Yrotation Xrotation
                }
              }
            }
          }
          JOINT LeftShoulder
          {
            OFFSET 1.621652 23.237164 5.113413
            CHANNELS 3 Zrotation Yrotation Xrotation
            JOINT LeftArm
            {
              OFFSET 14.919846 2e-06 -5.502326
              CHANNELS 3 Zrotation Yrotation Xrotation
              JOINT LeftForeArm
              {
                OFFSET 28.739307 0.0 -0.002588
                CHANNELS 3 Zrotation Yrotation Xrotation
                JOINT LeftHand
                {
                  OFFSET 27.093981 -1e-06 0.002609
                  CHANNELS 3 Zrotation Yrotation Xrotation
                  JOINT LeftHandThumb1
                  {
                    OFFSET 2.276482 -1.392045 3.191413
                    CHANNELS 3 Zrotation Yrotation Xrotation
                    JOINT LeftHandThumb2
                    {
                      OFFSET 4.012836 -1.828127 1.641654
                      CHANNELS 3 Zrotation Yrotation Xrotation
                      JOINT LeftHandThumb3
                      {
                        OFFSET 2.798515 0.0 -3e-06
                        CHANNELS 3 Zrotation Yrotation Xrotation
                        JOINT LeftHandThumbEnd
                        {
                          OFFSET 3.180793 -4e-06 4e-06
                          CHANNELS 3 Zrotation Yrotation Xrotation
                        }
                      }
                    }
                  }
                  JOINT LeftHandIndex1
                  {
                    OFFSET 3.247555 -0.531998 2.296169
                    CHANNELS 3 Zrotation Yrotation Xrotation
                    JOINT LeftHandIndex2
                    {
                      OFFSET 6.364578 0.01206 0.1786
                      CHANNELS 3 Zrotation Yrotation Xrotation
                      JOINT LeftHandIndex3
                      {
                        OFFSET 3.662364 0.0 0.0
                        CHANNELS 3 Zrotation Yrotation Xrotation
                        JOINT LeftHandIndex4
                        {
                          OFFSET 2.329242 4e-06 4e-06
                          CHANNELS 3 Zrotation Yrotation Xrotation
                          JOINT LeftHandIndexEnd
                          {
                            OFFSET 2.759615 -0.180537 -0.113024
                            CHANNELS 3 Zrotation Yrotation Xrotation
                          }
                        }
                      }
                    }
                  }
                  JOINT LeftHandMiddle1
                  {
                    OFFSET 3.163495 0.240981 1.000332
                    CHANNELS 3 Zrotation Yrotation Xrotation
                    JOINT LeftHandMiddle2
                    {
                      OFFSET 6.19078 -0.259278 -1.002548
                      CHANNELS 3 Zrotation Yrotation Xrotation
                      JOINT LeftHandMiddle3
                      {
                        OFFSET 4.35652 -4e-06 -1e-06
                        CHANNELS 3 Zrotation Yrotation Xrotation
                        JOINT LeftHandMiddle4
                        {
                          OFFSET 2.996877 -8e-06 0.0
                          CHANNELS 3 Zrotation Yrotation Xrotation
                          JOINT LeftHandMiddleEnd
                          {
                            OFFSET 2.304287 -0.294569 -0.031741
                            CHANNELS 3 Zrotation Yrotation Xrotation
                          }
                        }
                      }
                    }
                  }
                  JOINT LeftHandRing1
                  {
                    OFFSET 2.882643 -0.053652 -0.322543
                    CHANNELS 3 Zrotation Yrotation Xrotation
                    JOINT LeftHandRing2
                    {
                      OFFSET 5.854541 -0.486202 -1.373841
                      CHANNELS 3 Zrotation Yrotation Xrotation
                      JOINT LeftHandRing3
                      {
                        OFFSET 4.350578 0.0 3e-06
                        CHANNELS 3 Zrotation Yrotation Xrotation
                        JOINT LeftHandRing4
                        {
                          OFFSET 2.651321 7e-06 2e-06
                          CHANNELS 3 Zrotation Yrotation Xrotation
                          JOINT LeftHandRingEnd
                          {
                            OFFSET 1.936105 0.077687 -7.1e-05
                            CHANNELS 3 Zrotation Yrotation Xrotation
                          }
                        }
                      }
                    }
                  }
                  JOINT LeftHandPinky1
                  {
                    OFFSET 2.8655 -0.310005 -1.600378
                    CHANNELS 3 Zrotation Yrotation Xrotation
                    JOINT LeftHandPinky2
                    {
                      OFFSET 5.087849 -1.331141 -1.77123
                      CHANNELS 3 Zrotation Yrotation Xrotation
                      JOINT LeftHandPinky3
                      {
                        OFFSET 3.070974 4e-06 0.0
                        CHANNELS 3 Zrotation Yrotation Xrotation
                        JOINT LeftHandPinky4
                        {
                          OFFSET 1.549672 0.0 1e-06
                          CHANNELS 3 Zrotation Yrotation Xrotation
                          JOINT LeftHandPinkyEnd
                          {
                            OFFSET 1.944893 -0.157802 0.057219
                            CHANNELS 3 Zrotation Yrotation Xrotation
                          }
                        }
                      }
                    }
                  }
                }
              }
            }
          }
          JOINT RightShoulder
          {
            OFFSET -1.380118 23.180309 5.214158
            CHANNELS 3 Zrotation Yrotation Xrotation
            JOINT RightArm
            {
              OFFSET -15.037196 1.2e-05 -5.545604
              CHANNELS 3 Zrotation Yrotation Xrotation
              JOINT RightForeArm
              {
                OFFSET -28.736639 2e-06 -0.002597
                CHANNELS 3 Zrotation Yrotation Xrotation
                JOINT RightHand
                {
                  OFFSET -27.133619 -0.0 0.002613
                  CHANNELS 3 Zrotation Yrotation Xrotation
                  JOINT RightHandThumb1
                  {
                    OFFSET -2.274032 -1.383988 3.163127
                    CHANNELS 3 Zrotation Yrotation Xrotation
                    JOINT RightHandThumb2
                    {
                      OFFSET -4.011429 -1.827466 1.640914
                      CHANNELS 3 Zrotation Yrotation Xrotation
                      JOINT RightHandThumb3
                      {
                        OFFSET -2.794935 -4e-06 -3e-06
                        CHANNELS 3 Zrotation Yrotation Xrotation
                        JOINT RightHandThumbEnd
                        {
                          OFFSET -3.183852 4e-06 1e-06
                          CHANNELS 3 Zrotation Yrotation Xrotation
                        }
                      }
                    }
                  }
                  JOINT RightHandIndex1
                  {
                    OFFSET -3.253266 -0.520057 2.282866
                    CHANNELS 3 Zrotation Yrotation Xrotation
                    JOINT RightHandIndex2
                    {
                      OFFSET -6.341917 0.012471 0.178266
                      CHANNELS 3 Zrotation Yrotation Xrotation
                      JOINT RightHandIndex3
                      {
                        OFFSET -3.654871 -8e-06 -0.0
                        CHANNELS 3 Zrotation Yrotation Xrotation
                        JOINT RightHandIndex4
                        {
                          OFFSET -2.327586 0.0 1e-06
                          CHANNELS 3 Zrotation Yrotation Xrotation
                          JOINT RightHandIndexEnd
                          {
                            OFFSET -2.76179 -0.180656 -0.113078
                            CHANNELS 3 Zrotation Yrotation Xrotation
                          }
                        }
                      }
                    }
                  }
                  JOINT RightHandMiddle1
                  {
                    OFFSET -3.168106 0.246593 1.00103
                    CHANNELS 3 Zrotation Yrotation Xrotation
                    JOINT RightHandMiddle2
                    {
                      OFFSET -6.180828 -0.258836 -1.000895
                      CHANNELS 3 Zrotation Yrotation Xrotation
                      JOINT RightHandMiddle3
                      {
                        OFFSET -4.348901 0.0 -0.0
                        CHANNELS 3 Zrotation Yrotation Xrotation
                        JOINT RightHandMiddle4
                        {
                          OFFSET -3.00024 -4e-06 -2e-06
                          CHANNELS 3 Zrotation Yrotation Xrotation
                          JOINT RightHandMiddleEnd
                          {
                            OFFSET -2.30252 -0.29437 -0.031706
                            CHANNELS 3 Zrotation Yrotation Xrotation
                          }
                        }
                      }
                    }
                  }
                  JOINT RightHandRing1
                  {
                    OFFSET -2.88569 -0.067952 -0.308858
                    CHANNELS 3 Zrotation Yrotation Xrotation
                    JOINT RightHandRing2
                    {
                      OFFSET -5.854198 -0.48613 -1.373731
                      CHANNELS 3 Zrotation Yrotation Xrotation
                      JOINT RightHandRing3
                      {
                        OFFSET -4.33881 -4e-06 -0.0
                        CHANNELS 3 Zrotation Yrotation Xrotation
                        JOINT RightHandRing4
                        {
                          OFFSET -2.654903 -4e-06 4e-06
                          CHANNELS 3 Zrotation Yrotation Xrotation
                          JOINT RightHandRingEnd
                          {
                            OFFSET -1.933568 0.077527 -5.2e-05
                            CHANNELS 3 Zrotation Yrotation Xrotation
                          }
                        }
                      }
                    }
                  }
                  JOINT RightHandPinky1
                  {
                    OFFSET -2.866425 -0.342796 -1.584145
                    CHANNELS 3 Zrotation Yrotation Xrotation
                    JOINT RightHandPinky2
                    {
                      OFFSET -5.091371 -1.332055 -1.772385
                      CHANNELS 3 Zrotation Yrotation Xrotation
                      JOINT RightHandPinky3
                      {
                        OFFSET -3.062664 -4e-06 1e-06
                        CHANNELS 3 Zrotation Yrotation Xrotation
                        JOINT RightHandPinky4
                        {
                          OFFSET -1.546529 4e-06 -2e-06
                          CHANNELS 3 Zrotation Yrotation Xrotation
                          JOINT RightHandPinkyEnd
                          {
                            OFFSET -1.945119 -0.157718 0.057211
                            CHANNELS 3 Zrotation Yrotation Xrotation
                          }
                        }
                      }
                    }
                  }
                }
              }
            }
          }
        }
      }
    }
    JOINT LeftLeg
    {
      OFFSET 10.043214 -8.434526 2.595655
      CHANNELS 3 Zrotation Yrotation Xrotation
      JOINT LeftShin
      {
        OFFSET -1e-06 -43.221752 -0.802913
        CHANNELS 3 Zrotation Yrotation Xrotation
        JOINT LeftFoot
        {
          OFFSET 1e-06 -42.155094 -3.481523
          CHANNELS 3 Zrotation Yrotation Xrotation
          JOINT LeftToeBase
          {
            OFFSET 0.0 -5.059472 13.231529
            CHANNELS 3 Zrotation Yrotation Xrotation
            JOINT LeftToeEnd
            {
              OFFSET -0.009607 -1.647619 6.513017
              CHANNELS 3 Zrotation Yrotation Xrotation
            }
          }
        }
      }
    }
    JOINT RightLeg
    {
      OFFSET -10.047278 -8.29526 2.620317
      CHANNELS 3 Zrotation Yrotation Xrotation
      JOINT RightShin
      {
        OFFSET 1e-06 -43.362206 -0.805556
        CHANNELS 3 Zrotation Yrotation Xrotation
        JOINT RightFoot
        {
          OFFSET 2e-06 -42.117393 -3.478398
          CHANNELS 3 Zrotation Yrotation Xrotation
          JOINT RightToeBase
          {
            OFFSET -0.0 -5.079609 13.284196
            CHANNELS 3 Zrotation Yrotation Xrotation
            JOINT RightToeEnd
            {
              OFFSET 0.009532 -1.634378 6.460591
              CHANNELS 3 Zrotation Yrotation Xrotation
            }
          }
        }
      }
    }
  }
}
MOTION
Frames: 4
Frame Time: 0.03333333333333333
0.0 0.0 0.0 0.0 -0.0 0.0 -2.378762 48.988461 111.852882 4.780538 10.706086 47.971531 1.596343 -0.705085 19.779924 0.587785 -1.458437 0.948393 4.131411 -2.417558 11.744327 -0.164392 2.101137 3.20515 -0.4657 -1.130283 -3.246817 -1.101396 -0.359178 7.394335 7.7e-05 -2.2e-05 6e-06 -0.033766 0.03225 -0.221021 0.780063 -3.659827 -10.815844 -0.844087 3.733989 -10.817764 13.252527 -30.18648 3.727516 -10.387053 -52.261211 -10.376669 0.086943 -22.605724 0.095749 68.664032 3.905088 -3.399008 -5.882106 9.861284 0.702589 -10.93687 -0.360577 7.156205 1e-06 8.774824 -3e-06 -15.487969 18.254545 5.818795 -1.844032 2.498504 -2.507278 -10.163599 4.678942 4.621108 -20.976023 -4e-06 5e-06 -21.226286 2.451697 -3.593996 1e-06 -6e-06 1e-06 -1.362681 2.240798 -0.746324 -21.334915 0.584908 3.008327 -13.821216 -3e-06 4e-06 -23.887173 -0.249078 -0.839479 -59.186344 2.982101 -1.660356 -0.294025 1.679687 0.833255 -14.218208 0.093214 1.300582 -34.212048 -0.287564 0.967176 -20.033213 0.964538 1.212846 -0.0 0.0 0.0 -3.440388 0.788233 0.501657 -15.928187 -3.16731 2.99971 -6.338829 -2e-06 1e-06 -18.123444 3.648181 -4.905668 -5e-06 0.0 -1e-06 -1.739527 31.850382 7.528341 22.827387 28.024326 -21.017775 0.718543 59.343307 -0.522865 -85.473381 16.810476 10.15645 2.243539 -5.255036 -3.180156 14.282885 -0.826593 6.9525 -3e-06 -12.6906 -1e-06 16.747074 -17.952282 2.315096 1.665665 -1.955921 -2.878296 4.727798 -4.170586 4.993921 11.020522 4e-06 2e-06 12.109048 -3.735715 -2.866783 -0.0 1e-06 0.0 1.291984 -1.92855 -1.498088 14.800122 0.56747 3.865606 14.242566 -1.341738 -6.660653 19.631964 0.143925 -0.648241 50.882103 -0.67564 -6.118667 0.353029 -1.51115 -0.031941 20.222784 3.68431 2.316632 18.787268 4e-06 3e-06 10.751625 -0.479868 1.397906 -1e-06 0.0 1e-06 3.273806 0.305947 -0.58011 21.486809 11.830373 2.266136 8.162924 2e-06 2e-06 18.399076 -3.798984 -4.940571 3e-06 1e-06 -2e-06 5.22744 -4.975363 -33.578178 -0.341521 -1.406411 86.567802 2.82761 -13.481663 32.939365 1.358444 -1.945114 -5.396702 0.0 0.0 2e-06 0.635262 -9.904976 -56.080338 0.360264 0.363045 104.669914 22.030661 35.385162 50.20789 -1.063624 0.66148 -4.879635 -1e-06 0.0 -2e-06 
0.0 0.0 0.0 0.0 -0.0 0.0 -2.818792 49.116692 113.377068 4.950296 10.430076 47.761456 1.303956 -0.544234 20.07328 0.500311 -1.131467 1.053281 3.613518 -2.255523 11.652721 -0.11873 1.999907 2.645559 -0.457213 -1.179885 -3.25108 -1.427306 -0.332199 7.779789 7.7e-05 -2.3e-05 6e-06 0.024082 0.031352 -0.210017 0.852115 -3.652043 -10.738109 -0.798571 3.722851 -10.72167 12.252849 -30.334015 3.95915 -10.772502 -52.708824 -8.0526 0.189964 -22.062548 0.043947 69.043755 3.663217 -3.000497 -5.882107 9.86129 0.702591 -10.936873 -0.360576 7.156208 1e-06 8.77483 -3e-06 -15.671867 18.238232 5.721211 -1.844032 2.498505 -2.507278 -10.163601 4.678947 4.621109 -20.976027 -4e-06 3e-06 -21.226288 2.451698 -3.594002 1e-06 -6e-06 0.0 -1.362682 2.240798 -0.746323 -21.334917 0.584909 3.008325 -13.821217 -3e-06 3e-06 -23.887173 -0.249079 -0.839483 -59.13879 2.861557 -1.615773 -0.294024 1.679688 0.833256 -14.21821 0.093215 1.30058 -34.212048 -0.287564 0.967171 -20.033215 0.964537 1.212845 0.0 -0.0 1e-06 -3.440389 0.788233 0.501656 -15.928189 -3.167312 2.999708 -6.338828 -1e-06 2e-06 -18.123447 3.648184 -4.90567 -4e-06 0.0 -2e-06 -3.820313 33.639858 6.245184 16.194874 27.414917 -29.315165 -0.753454 57.589336 -1.755241 -82.358498 14.71276 9.94814 2.243541 -5.255037 -3.180158 14.282887 -0.826592 6.952503 -4e-06 -12.690605 1e-06 15.927651 -17.817924 2.592852 1.665664 -1.955922 -2.878299 4.727797 -4.170586 4.993923 11.020521 5e-06 -0.0 12.109045 -3.735715 -2.866783 1e-06 -0.0 -1e-06 1.291984 -1.928549 -1.498089 14.800125 0.56747 3.865608 14.242566 -1.341735 -6.660655 19.63196 0.143927 -0.64824 50.203972 -0.579285 -6.090884 0.353028 -1.511151 -0.031939 20.222782 3.684313 2.316632 18.787268 6e-06 2e-06 10.751625 -0.479868 1.397907 -2e-06 0.0 1e-06 3.273805 0.305947 -0.580111 21.486807 11.830379 2.266135 8.162924 2e-06 2e-06 18.399076 -3.798985 -4.940571 2e-06 1e-06 -2e-06 5.27992 -4.294086 -36.6124 -0.406893 -1.330238 91.776772 2.946145 -13.398038 30.51429 1.372783 -1.951357 -4.811242 -0.0 0.0 2e-06 0.654892 -9.446066 -53.882217 0.330361 0.328254 102.593941 21.708067 36.371815 49.661682 -1.031874 0.670248 -5.132642 -1e-06 -0.0 -3e-06 
0.0 0.0 0.0 0.0 -0.0 0.0 -3.22382 49.150951 114.958336 5.096676 10.04946 47.356312 1.058389 -0.482145 20.386295 0.320281 -0.600753 1.246646 3.032627 -2.050805 11.714611 -0.112104 1.940461 2.178181 -0.567262 -1.191483 -3.275116 -1.710525 -0.232073 8.01973 7.7e-05 -2.3e-05 6e-06 0.044826 0.024154 -0.205054 0.882064 -3.667611 -10.716989 -0.785578 3.722785 -10.712782 11.147543 -30.360376 4.126505 -11.136173 -53.080376 -5.912209 0.303476 -21.861618 -0.04248 69.322876 3.311355 -2.279032 -5.882103 9.861279 0.702592 -10.936866 -0.360573 7.156201 2e-06 8.774819 1e-06 -16.071909 18.347107 5.715646 -1.844032 2.498502 -2.507275 -10.163595 4.678943 4.621109 -20.976017 -3e-06 2e-06 -21.226278 2.451696 -3.593996 0.0 -6e-06 0.0 -1.362681 2.240796 -0.746323 -21.334906 0.584909 3.008322 -13.821211 -2e-06 2e-06 -23.887161 -0.249078 -0.839482 -59.358627 2.818136 -1.402539 -0.294024 1.679686 0.833255 -14.218201 0.093215 1.30058 -34.212032 -0.287563 0.96717 -20.033205 0.964536 1.212843 -0.0 -0.0 0.0 -3.440388 0.788233 0.501656 -15.928181 -3.167307 2.999705 -6.338823 -1e-06 1e-06 -18.12344 3.648181 -4.905666 -4e-06 -0.0 -2e-06 -6.629452 35.854218 4.500435 9.302734 26.349436 -36.598274 -1.258598 51.947548 -1.83704 -78.382187 9.758982 8.158639 2.24354 -5.255033 -3.180157 14.282881 -0.826594 6.952497 -3e-06 -12.690593 1e-06 15.78441 -17.794382 2.577592 1.665665 -1.955919 -2.878298 4.727796 -4.170584 4.993921 11.02052 5e-06 -2e-06 12.109044 -3.735712 -2.866782 1e-06 -0.0 0.0 1.291984 -1.928548 -1.498088 14.800118 0.567467 3.865604 14.242562 -1.341734 -6.660654 19.631952 0.143926 -0.648244 49.769356 -0.359269 -6.304247 0.353029 -1.511149 -0.031939 20.22278 3.684307 2.316627 18.787264 5e-06 -1e-06 10.751617 -0.479867 1.397905 -1e-06 1e-06 -0.0 3.273805 0.305946 -0.58011 21.486799 11.830362 2.26613 8.162922 2e-06 -0.0 18.399071 -3.798981 -4.940572 3e-06 1e-06 -3e-06 5.269977 -3.52278 -40.374352 -0.485901 -1.14619 97.970337 3.00894 -13.464203 27.531174 1.455275 -1.922714 -4.489853 -0.0 0.0 3e-06 0.585682 -8.895651 -51.465916 0.278206 0.219316 100.543877 20.496067 37.016605 49.52697 -0.984885 0.675473 -6.873462 -1e-06 -0.0 -3e-06 
0.0 0.0 0.0 0.0 -0.0 0.0 -3.626989 49.189358 116.657127 5.195707 9.418332 46.924969 0.776185 -0.317953 20.667933 0.247453 -0.11068 1.420544 2.293947 -1.677305 11.926194 -0.176731 1.810999 1.582777 -0.592135 -1.186285 -3.261194 -2.100007 -0.185015 8.403729 7.7e-05 -2.2e-05 6e-06 0.069346 0.021682 -0.191526 0.909293 -3.661089 -10.659399 -0.765657 3.71056 -10.659485 9.826838 -30.311554 4.327682 -11.367552 -53.404606 -4.00122 0.333954 -21.932001 -0.112841 69.732315 2.907071 -1.35363 -5.882106 9.861284 0.702589 -10.93687 -0.360576 7.156205 1e-06 8.774824 -2e-06 -16.284863 18.332903 5.689113 -1.844033 2.498504 -2.507277 -10.163597 4.678943 4.621108 -20.976021 -3e-06 3e-06 -21.226284 2.451696 -3.593998 0.0 -6e-06 1e-06 -1.362682 2.240798 -0.746323 -21.334913 0.584908 3.008325 -13.821213 -3e-06 3e-06 -23.887169 -0.249079 -0.839481 -59.440506 2.791238 -1.362087 -0.294025 1.679687 0.833255 -14.218207 0.093214 1.300582 -34.212048 -0.287564 0.967173 -20.033211 0.964537 1.212845 0.0 -0.0 0.0 -3.440389 0.788233 0.501656 -15.928185 -3.16731 2.999708 -6.338825 -2e-06 1e-06 -18.123444 3.648182 -4.905667 -4e-06 0.0 -1e-06 -9.539636 37.996719 3.16547 2.801385 24.88332 -42.697735 -0.204477 43.83646 -0.840816 -73.156631 3.710636 4.866627 2.24354 -5.255033 -3.180155 14.282881 -0.826595 6.952498 -3e-06 -12.690592 2e-06 15.951089 -17.708714 2.322028 1.665665 -1.955921 -2.878298 4.727797 -4.170583 4.99392 11.020519 4e-06 -1e-06 12.109042 -3.735712 -2.866781 0.0 -1e-06 1e-06 1.291984 -1.928548 -1.498087 14.80012 0.567467 3.865605 14.242564 -1.341735 -6.660653 19.631952 0.143926 -0.648245 49.677925 -0.212223 -6.245082 0.353029 -1.511149 -0.03194 20.222782 3.684306 2.316629 18.787266 4e-06 -1e-06 10.75162 -0.479868 1.397906 -2e-06 1e-06 1e-06 3.273805 0.305947 -0.58011 21.486801 11.830362 2.266131 8.162923 1e-06 -0.0 18.399075 -3.798982 -4.94057 3e-06 1e-06 -2e-06 5.106297 -2.620517 -44.827045 -0.486619 -0.80051 104.599434 3.614288 -13.472095 24.07802 1.509713 -1.878617 -4.857555 0.0 -0.0 5e-06 0.412231 -8.206897 -49.053745 0.214902 0.170434 98.510033 19.61611 37.402943 49.097897 -0.95461 0.665718 -7.285074 -1e-06 -0.0 -2e-06 
